<?xml version="1.0"?>
<svg xmlns="http://www.w3.org/2000/svg" height="512px" viewBox="-31 0 512 512" width="512px"><path d="m330 361h-30v-46c0-13.171875 23.082031-32.089844 45-48.722656 21.917969 16.632812 45 35.550781 45 48.722656v46h-30v151h90v-151h-30v-46c0-25.257812-22.722656-46.289062-50.15625-67.5 27.433594-21.210938 50.15625-42.242188 50.15625-67.5 0-24.480469-21.4375-42.714844-46.765625-59.308594 25.328125-16.59375 46.765625-34.824218 46.765625-59.308594 0-38.902343-35.378906-61.382812-74.902344-61.382812-37.320312 0-75.097656 21.085938-75.097656 61.382812 0 24.480469 21.4375 42.714844 46.765625 59.308594-25.328125 16.59375-46.765625 34.828125-46.765625 59.308594 0 25.257812 22.722656 46.289062 50.15625 67.5-27.433594 21.210938-50.15625 42.242188-50.15625 67.5v46h-30v151h90zm90 121h-30v-91h30zm-120-420.617188c0-24.824218 29.5-31.382812 45.097656-31.382812 21.535156 0 44.902344 9.652344 44.902344 31.382812 0 12.570313-23.273438 28.214844-45 41.691407-21.726562-13.476563-45-29.121094-45-41.691407zm0 118.617188c0-12.570312 23.273438-28.214844 45-41.691406 21.726562 13.476562 45 29.121094 45 41.691406 0 13.171875-23.082031 32.089844-45 48.722656-21.917969-16.632812-45-35.550781-45-48.722656zm0 302h-30v-91h30zm0 0" fill="#6b0099"/><path d="m60 512h90v-60h60v-121h-60v-121h60v-120h-60v-60h-90v60h-60v120h60v121h-60v121h60zm60-30h-30v-30h30zm-30-422h30v30h-30zm-60 60h150v60h-150zm60 90h30v121h-30zm-60 151h150v61h-150zm0 0" fill="#6b0099"/></svg>
