<svg height="480pt" viewBox="0 0 480 480.01506" width="480pt" xmlns="http://www.w3.org/2000/svg"><path fill="#6b0099" d="m467.320312 176.75 5.65625-5.65625c9.375-9.375 9.375-24.570312 0-33.945312l-11.3125-11.3125c-9.375-9.375-24.570312-9.375-33.945312 0l-22.625 22.625-73.535156-73.535157 22.625-22.625c9.375-9.371093 9.375-24.570312 0-33.945312l-11.3125-11.308594c-9.371094-9.375-24.570313-9.375-33.945313 0l-5.652343 5.652344-5.664063-5.652344c-9.496094-9.074219-24.449219-9.074219-33.945313 0l-33.929687 33.933594c-9.375 9.375-9.375 24.570312 0 33.945312l5.65625 5.65625-5.65625 5.65625c-9.367187 9.371094-9.367187 24.5625 0 33.933594l11.3125 11.320313c9.375 9.375 24.570313 9.375 33.945313 0l22.617187-22.632813 73.542969 73.554687-22.632813 22.621094c-9.375 9.375-9.375 24.574219 0 33.945313l11.3125 11.3125c9.371094 9.375 24.570313 9.375 33.945313 0l5.652344-5.65625 5.65625 5.65625c9.375 9.367187 24.566406 9.367187 33.9375 0l33.945312-33.9375c9.375-9.371094 9.375-24.570313 0-33.941407zm-226.273437-113.144531c-3.117187-3.125-3.117187-8.179688 0-11.304688l33.945313-33.945312c3.164062-3.023438 8.148437-3.023438 11.3125 0l5.65625 5.65625-45.257813 45.257812zm22.625 56.566406c-3.125 3.125-8.1875 3.125-11.3125 0l-11.3125-11.3125c-3.121094-3.121094-3.121094-8.1875 0-11.308594l79.199219-79.203125c1.503906-1.5 3.539062-2.34375 5.660156-2.34375 2.125 0 4.160156.84375 5.660156 2.34375l11.3125 11.3125c1.503906 1.5 2.347656 3.539063 2.347656 5.660156 0 2.125-.84375 4.160157-2.347656 5.660157l-28.28125 28.273437-11.308594 11.3125zm45.253906-22.621094 11.3125-11.3125 73.546875 73.535157-11.320312 11.320312zm152.738281 107.476563-33.945312 33.945312c-3.164062 3.027344-8.148438 3.027344-11.3125 0l-5.65625-5.65625 12-12c3.035156-3.136718 2.988281-8.128906-.097656-11.214844-3.085938-3.085937-8.074219-3.128906-11.210938-.097656l-28.96875 28.96875c-3.164062 3.027344-8.148437 3.027344-11.3125 0l-11.320312-11.3125c-1.503906-1.5-2.347656-3.535156-2.347656-5.660156 0-2.121094.84375-4.160156 2.347656-5.660156l28.289062-28.277344 22.621094-22.625 28.273438-28.273438c1.5-1.5 3.535156-2.34375 5.660156-2.34375s4.160156.84375 5.660156 2.34375l11.3125 11.3125c1.5 1.5 2.34375 3.535157 2.34375 5.660157s-.84375 4.160156-2.34375 5.660156l-27.632812 27.632813c-3.03125 3.136718-2.988282 8.128906.097656 11.214843 3.085937 3.085938 8.074218 3.128907 11.214844.097657l10.671874-10.679688 5.65625 5.65625c3.121094 3.121094 3.121094 8.1875 0 11.308594zm0 0"/><path fill="#6b0099" d="m56.007812 408.011719c4.417969 0 8-3.582031 8-8v-64c0-4.417969-3.582031-8-8-8-4.417968 0-8 3.582031-8 8v8h-24c-4.417968 0-8 3.582031-8 8v48c.167969.5625.234376 1.152343.191407 1.738281l16 72c.8125 3.660156 4.058593 6.261719 7.808593 6.261719.585938 0 1.171876-.0625 1.742188-.183594 4.316406-.957031 7.035156-5.238281 6.074219-9.550781l-15.816407-71.136719v-39.128906h16v40c0 4.417969 3.582032 8 8 8zm0 0"/><path fill="#6b0099" d="m147.566406 441.355469c-2.222656 1.484375-3.558594 3.984375-3.558594 6.65625v24c0 4.417969 3.582032 8 8 8 4.417969 0 8-3.582031 8-8v-19.71875l20.441407-13.601563c1.839843-1.222656 3.089843-3.160156 3.445312-5.34375l8-48c.394531-2.320312-.253906-4.699218-1.777343-6.496094-1.519532-1.800781-3.753907-2.839843-6.109376-2.839843h-24v-40c0-4.417969-3.582031-8-8-8h-24v-8c0-4.417969-3.582031-8-8-8h-32c-4.417968 0-8 3.582031-8 8v80c0 4.417969 3.582032 8 8 8 4.417969 0 8-3.582031 8-8v-72h16v72c0 4.417969 3.582032 8 8 8 4.417969 0 8-3.582031 8-8v-56h16v56c0 4.417969 3.582032 8 8 8 4.417969 0 8-3.582031 8-8v-8h14.550782l-5.871094 35.265625zm0 0"/><path fill="#6b0099" d="m64.007812 440.011719h56c4.417969 0 8-3.582031 8-8s-3.582031-8-8-8h-56c-4.417968 0-8 3.582031-8 8s3.582032 8 8 8zm0 0"/><path fill="#6b0099" d="m24.007812 280.011719h32c8.769532-.019531 17.152344-3.621094 23.199219-9.976563 6.074219-6.355468 9.238281-14.949218 8.738281-23.726562-1.28125-17.34375-15.910156-30.652344-33.296874-30.296875h-6.640626v-24c-.046874-11.820313-8.691406-21.847657-20.375-23.628907-.113281-.59375-.292968-1.171874-.546874-1.722656-23.589844-42.492187-8.269532-96.066406 34.226562-119.65625 14.996094-8.335937 27.703125-20.246094 36.992188-34.671875 2.382812-3.726562 1.296874-8.679687-2.429688-11.066406s-8.679688-1.3007812-11.066406 2.425781c-7.847656 12.203125-18.585938 22.277344-31.265625 29.328125-49.03125 27.324219-67.554688 88.609375-41.863281 138.511719-7.21875 4.304688-11.648438 12.078125-11.6718755 20.480469v64c0 13.257812 10.7460935 24 23.9999995 24zm8-88v32c0 4.417969 3.582032 8 8 8h14.640626c8.847656-.261719 16.410156 6.328125 17.359374 15.128906.238282 4.394531-1.339843 8.691406-4.367187 11.882813-3.027344 3.191406-7.234375 4.996093-11.632813 4.988281h-32c-4.417968 0-8-3.582031-8-8v-64c0-4.417969 3.582032-8 8-8 4.417969 0 8 3.582031 8 8zm0 0"/><path fill="#6b0099" d="m112.007812 120.011719v24h-6.640624c-17.394532-.363281-32.03125 12.945312-33.3125 30.296875-.496094 8.78125 2.671874 17.375 8.753906 23.726562 6.046875 6.351563 14.429687 9.953125 23.199218 9.976563h32c13.253907 0 24-10.742188 24-24v-64c-.015624-11.527344-8.230468-21.417969-19.558593-23.550781-17.445313-18.886719-16.90625-48.164063 1.214843-66.398438 5.402344-5.421875 9.785157-11.765625 12.945313-18.738281 1.832031-4.023438.058594-8.769531-3.964844-10.601563-4.023437-1.835937-8.769531-.0625-10.605469 3.960938-2.355468 5.234375-5.636718 10-9.6875 14.066406-21.691406 21.765625-24.882812 55.867188-7.601562 81.277344-6.703125 4.441406-10.734375 11.945312-10.742188 19.984375zm16 32v-32c0-4.417969 3.582032-8 8-8 4.417969 0 8 3.582031 8 8v64c0 4.417969-3.582031 8-8 8h-32c-4.398437.007812-8.605468-1.796875-11.632812-4.988281-3.027344-3.191407-4.605469-7.488282-4.367188-11.882813.949219-8.800781 8.511719-15.390625 17.359376-15.128906h14.640624c4.417969 0 8-3.582031 8-8zm0 0"/><path fill="#6b0099" d="m328.742188 307.964844-11.3125 11.3125-11.316407-11.3125c-3.140625-3.03125-8.128906-2.988282-11.214843.097656-3.085938 3.085938-3.128907 8.074219-.097657 11.214844l16.976563 16.96875c3.121094 3.121094 8.1875 3.121094 11.308594 0l16.96875-16.96875c3.03125-3.140625 2.988281-8.128906-.097657-11.214844-3.085937-3.085938-8.074219-3.128906-11.214843-.097656zm0 0"/><path fill="#6b0099" d="m452.933594 432.140625c.742187.808594 1.644531 1.453125 2.648437 1.894531.378907.125.769531.21875 1.160157.28125.617187.210938 1.257812.339844 1.90625.390625.066406.023438.136718.039063.207031.050781.640625-.039062 1.273437-.15625 1.886719-.34375.28125-.074218.5625-.058593.800781-.152343 2.503906-.910157 4.390625-3.007813 5.035156-5.59375.640625-2.585938-.046875-5.320313-1.835937-7.296875l-83.535157-91.910156c-.40625-34.519532-28.28125-62.40625-62.800781-62.824219l-91.757812-83.382813c-3.160157-2.875-8.019532-2.757812-11.039063.261719l-45.257813 45.296875c-3.019531 3.019531-3.136718 7.878906-.265624 11.039062l83.394531 91.679688c.453125 34.601562 28.390625 62.546875 62.992187 63l91.734375 83.402344c3.269531 2.972656 8.332031 2.734375 11.304688-.535156 2.972656-3.269532 2.734375-8.332032-.535157-11.304688l-41.199218-37.457031 37.695312-37.703125zm-196.445313-121.078125-26.328125-28.96875 38.773438-38.769531 28.960937 26.328125c-19.675781 6.308594-35.097656 21.730468-41.40625 41.410156zm-34.960937-110.839844 35.550781 32.328125-37.695313 37.695313-32.328124-35.554688zm115.34375 191.199219c3.015625-.9375 5.957031-2.101563 8.800781-3.472656 3.964844-1.953125 5.597656-6.75 3.644531-10.714844-1.953125-3.96875-6.75-5.597656-10.71875-3.644531-14.867187 7.339844-32.472656 6.480468-46.554687-2.277344-14.082031-8.753906-22.640625-24.164062-22.636719-40.746094 0-.5625.058594-1.105468.082031-1.664062v-.089844c.851563-25.128906 21.027344-45.304688 46.160157-46.152344h.078124c.5625 0 1.113282-.078125 1.671876-.078125 13.007812-.003906 25.457031 5.273438 34.492187 14.628907 9.039063 9.351562 13.890625 21.972656 13.445313 34.96875v.25c-.308594 7.929687-2.582032 15.660156-6.617188 22.496093-2.25 3.804688-.988281 8.710938 2.816406 10.960938 3.804688 2.246093 8.710938.988281 10.960938-2.816407 2.386718-4.152343 4.292968-8.5625 5.679687-13.144531l26.511719 29.160157-38.761719 38.773437zm0 0"/></svg>