<?xml version="1.0"?>
<svg xmlns="http://www.w3.org/2000/svg" height="512px" viewBox="0 0 480 480" width="512px"><path d="m472 0h-464c-4.417969 0-8 3.582031-8 8v464c0 4.417969 3.582031 8 8 8h464c4.417969 0 8-3.582031 8-8v-464c0-4.417969-3.582031-8-8-8zm-456 16h216v448h-216zm448 448h-216v-448h216zm0 0" fill="#6b0099"/><path d="m360 200c0 8.835938-7.164062 16-16 16s-16-7.164062-16-16 7.164062-16 16-16 16 7.164062 16 16zm0 0" fill="#6b0099"/><path d="m288 40h136v16h-136zm0 0" fill="#6b0099"/><path d="m288 72h56v16h-56zm0 0" fill="#6b0099"/><path d="m368 72h56v16h-56zm0 0" fill="#6b0099"/><path d="m288 104h56v16h-56zm0 0" fill="#6b0099"/><path d="m368 104h56v16h-56zm0 0" fill="#6b0099"/><path d="m288 360h136v16h-136zm0 0" fill="#6b0099"/><path d="m288 392h56v16h-56zm0 0" fill="#6b0099"/><path d="m368 392h56v16h-56zm0 0" fill="#6b0099"/><path d="m288 424h56v16h-56zm0 0" fill="#6b0099"/><path d="m368 424h56v16h-56zm0 0" fill="#6b0099"/><path d="m288 328c13.253906 0 24-10.746094 24-24v-128c0-13.253906-10.746094-24-24-24s-24 10.746094-24 24v128c0 13.253906 10.746094 24 24 24zm-8-136h16v96h-16zm8 120c-4.417969 0-8-3.582031-8-8h16c0 4.417969-3.582031 8-8 8zm0-144c4.417969 0 8 3.582031 8 8h-16c0-4.417969 3.582031-8 8-8zm0 0" fill="#6b0099"/><path d="m136 200c0 8.835938-7.164062 16-16 16s-16-7.164062-16-16 7.164062-16 16-16 16 7.164062 16 16zm0 0" fill="#6b0099"/><path d="m64 40h136v16h-136zm0 0" fill="#6b0099"/><path d="m64 72h56v16h-56zm0 0" fill="#6b0099"/><path d="m144 72h56v16h-56zm0 0" fill="#6b0099"/><path d="m64 104h56v16h-56zm0 0" fill="#6b0099"/><path d="m144 104h56v16h-56zm0 0" fill="#6b0099"/><path d="m64 360h136v16h-136zm0 0" fill="#6b0099"/><path d="m64 392h56v16h-56zm0 0" fill="#6b0099"/><path d="m144 392h56v16h-56zm0 0" fill="#6b0099"/><path d="m64 424h56v16h-56zm0 0" fill="#6b0099"/><path d="m144 424h56v16h-56zm0 0" fill="#6b0099"/><path d="m88 304v-128c0-13.253906-10.746094-24-24-24s-24 10.746094-24 24v128c0 13.253906 10.746094 24 24 24s24-10.746094 24-24zm-32-112h16v96h-16zm8-24c4.417969 0 8 3.582031 8 8h-16c0-4.417969 3.582031-8 8-8zm-8 136h16c0 4.417969-3.582031 8-8 8s-8-3.582031-8-8zm0 0" fill="#6b0099"/></svg>
