<?xml version="1.0"?>
<svg xmlns="http://www.w3.org/2000/svg" height="512px" viewBox="-41 1 511 511.99875" width="512px"><path d="m306.351562 243.027344c4.140626 0 7.5-3.359375 7.5-7.5v-17.730469c0-4.140625-3.359374-7.5-7.5-7.5-4.140624 0-7.5 3.359375-7.5 7.5v17.730469c0 4.140625 3.355469 7.5 7.5 7.5zm0 0" fill="#6b0099"/><path d="m294.277344 269.085938h24.148437c4.140625 0 7.5-3.359376 7.5-7.5 0-4.140626-3.359375-7.5-7.5-7.5h-24.148437c-4.140625 0-7.5 3.359374-7.5 7.5 0 4.140624 3.359375 7.5 7.5 7.5zm0 0" fill="#6b0099"/><path d="m123.988281 243.027344c4.140625 0 7.5-3.359375 7.5-7.5v-17.730469c0-4.140625-3.359375-7.5-7.5-7.5s-7.5 3.359375-7.5 7.5v17.730469c0 4.140625 3.359375 7.5 7.5 7.5zm0 0" fill="#6b0099"/><path d="m136.0625 254.085938h-24.148438c-4.140624 0-7.5 3.359374-7.5 7.5 0 4.140624 3.359376 7.5 7.5 7.5h24.148438c4.140625 0 7.5-3.359376 7.5-7.5 0-4.140626-3.359375-7.5-7.5-7.5zm0 0" fill="#6b0099"/><path d="m215.167969 268.085938c8.523437 0 16.523437-3.566407 21.957031-9.78125 2.726562-3.117188 2.410156-7.855469-.710938-10.582032-3.117187-2.726562-7.855468-2.40625-10.582031.710938-2.585937 2.957031-6.46875 4.652344-10.664062 4.652344-4.191407 0-8.074219-1.695313-10.660157-4.652344-2.726562-3.117188-7.464843-3.433594-10.582031-.710938-3.121093 2.726563-3.4375 7.464844-.710937 10.585938 5.433594 6.210937 13.433594 9.777344 21.953125 9.777344zm0 0" fill="#6b0099"/><path d="m385.59375 275.480469c24.527344-.773438 44.246094-20.957031 44.246094-45.667969 0-11.921875-4.59375-22.789062-12.097656-30.9375-5.214844-34.078125-19.199219-66.53125-40.304688-93.789062-24.71875-31.945313-57.894531-55.707032-95.949219-68.722657-22.625-9.253906-42.777343-23.8125-52.804687-31.6875-7.957032-6.234375-19.070313-6.234375-27.039063.003907-10.015625 7.871093-30.167969 22.429687-52.796875 31.679687-38.0625 13.019531-71.238281 36.78125-95.953125 68.730469-21.085937 27.265625-35.082031 59.707031-40.292969 93.78125-7.507812 8.148437-12.101562 19.015625-12.101562 30.9375 0 24.714844 19.71875 44.894531 44.246094 45.671875 14.425781 53.484375 53.554687 96.972656 104.386718 117.503906-2.1875 1.5625-4.542968 3.335937-7.03125 5.363281-12.210937 9.957032-28.992187 27.136719-39.605468 52.453125-6.921875 16.527344-10.433594 34.59375-10.433594 53.699219 0 4.140625 3.355469 7.5 7.5 7.5h231.214844c4.140625 0 7.5-3.359375 7.5-7.5 0-19.109375-3.511719-37.175781-10.433594-53.699219-10.613281-25.316406-27.394531-42.496093-39.609375-52.457031-2.480469-2.019531-4.839844-3.792969-7.03125-5.359375 50.832031-20.527344 89.960937-64.015625 104.390625-117.503906zm-136.121094 126.96875c-2.0625 17.09375-16.660156 30.386719-34.304687 30.386719-17.640625 0-32.238281-13.292969-34.300781-30.386719 11.285156 2.21875 22.800781 3.332031 34.300781 3.332031 1.839843 0 3.667969-.039062 5.492187-.09375 9.667969-.296875 19.324219-1.371094 28.8125-3.238281zm150.738282-215.4375c-5.777344-2.171875-12.007813-3.125-18.167969-2.855469-.011719 0-.023438 0-.035157 0-.0625-.144531-.136718-.289062-.203124-.433594-2.664063-5.988281-5.859376-11.78125-9.527344-17.214844h21.917968c2.390626 6.710938 4.402344 13.558594 6.015626 20.503907zm-11.191407 73.117187c.457031-2.613281.847657-5.238281 1.183594-7.875 2.230469-17.441406 2.085937-35.398437-2.625-52.4375-.050781-.175781-.089844-.355468-.136719-.53125 4.636719.496094 9.144532 2.074219 13.082032 4.574219 8.816406 5.601563 14.316406 15.5 14.316406 25.953125 0 15.269531-11.203125 27.96875-25.820313 30.316406zm-326.46875-142.953125h60.253907c4.144531 0 7.5-3.359375 7.5-7.5s-3.355469-7.5-7.5-7.5h-47.875c21.566406-23.601562 48.59375-41.335937 78.96875-51.6875.140624-.046875.277343-.101562.410156-.15625 24.40625-9.9375 45.941406-25.476562 56.597656-33.851562 2.507812-1.964844 6.015625-1.964844 8.519531-.003907 10.664063 8.378907 32.199219 23.917969 56.605469 33.855469.132812.054688.269531.105469.40625.15625 30.367188 10.351563 57.394531 28.082031 78.964844 51.6875h-202.597656c-4.140626 0-7.5 3.359375-7.5 7.5s3.359374 7.5 7.5 7.5h214.980468c7.988282 10.734375 14.796875 22.234375 20.324219 34.328125h-345.878906c5.53125-12.105468 12.335937-23.609375 20.320312-34.328125zm-16.34375 66.9375c-5.484375.007813-10.933593.964844-16.078125 2.898438 1.613282-6.941407 3.625-13.796875 6.015625-20.503907h21.917969c-.304688.453126-.589844.921876-.886719 1.378907-3.378906 5.167969-6.359375 10.617187-8.84375 16.269531-.011719 0-.023437 0-.035156 0-.699219-.03125-1.394531-.042969-2.089844-.042969zm-4.886719 76.015625c-14.617187-2.347656-25.820312-15.046875-25.820312-30.316406 0-15.390625 12.117188-28.886719 27.402344-30.53125-.054688.191406-.097656.386719-.152344.578125-2.648438 9.613281-4.019531 19.589844-4.042969 29.5625v.390625c0 10.171875.867188 20.292969 2.613281 30.316406zm14.976563-1.523437c-.027344-.148438-.058594-.300781-.082031-.453125-4.214844-23.671875-3.585938-48.246094 6.957031-70.371094 3.625-7.613281 8.195313-14.753906 13.617187-21.210938.019532-.019531.039063-.042968.058594-.0625h276.648438c.011718.015626.027344.03125.039062.046876 14.699219 17.375 23.035156 40.09375 23.097656 62.851562.027344 9.636719-.820312 19.28125-2.511718 28.769531-.019532.121094-.042969.242188-.066406.363281-10.941407 60.3125-55.707032 109.035157-113.933594 125.886719-29.164063 8.441407-60.742188 8.441407-89.90625 0-58.203125-16.84375-102.953125-65.539062-113.917969-125.820312zm60.03125 197.996093c6.1875-14.761718 14.769531-26.425781 23.011719-35.207031v75.605469h-32.074219c.78125-14.324219 3.820313-27.886719 9.0625-40.398438zm38.011719-48.8125c4.605468-3.535156 8.574218-6.066406 11.320312-7.6875.964844 26.480469 22.796875 47.734376 49.507813 47.734376 26.714843 0 48.546875-21.253907 49.507812-47.734376 2.75 1.621094 6.722657 4.152344 11.324219 7.6875v89.210938h-121.660156zm159.671875 48.808594c5.242187 12.515625 8.28125 26.074219 9.0625 40.402344h-32.074219v-75.609375c8.242188 8.785156 16.824219 20.449219 23.011719 35.207031zm0 0" fill="#6b0099"/></svg>
